Coordinates
version=1
nRows=6
nColumns=38
inDegrees=yes

Units are S.I. units (second, meters, Newtons, ...)
Angles are in degrees.

endheader
time	pelvis_tilt	pelvis_list	pelvis_rotation	pelvis_tx	pelvis_ty	pelvis_tz	hip_flexion_r	hip_adduction_r	hip_rotation_r	knee_angle_r	ankle_angle_r	subtalar_angle_r	mtp_angle_r	hip_flexion_l	hip_adduction_l	hip_rotation_l	knee_angle_l	ankle_angle_l	subtalar_angle_l	mtp_angle_l	lumbar_extension	lumbar_bending	lumbar_rotation	arm_flex_r	arm_add_r	arm_rot_r	elbow_flex_r	pro_sup_r	wrist_flex_r	wrist_dev_r	arm_flex_l	arm_add_l	arm_rot_l	elbow_flex_l	pro_sup_l	wrist_flex_l	wrist_dev_l
      5.30000000	      4.89915529	      0.14823229	      2.29683353	     -0.05886450	      0.87139925	      2.63155316	    -15.19024609	      2.10923221	    -13.98595563	     -9.08545963	     11.30896437	      0.00000000	      0.00000000	     16.27395544	     -0.89273110	      2.57284975	    -11.80990913	     -7.24589336	      0.00000000	      0.00000000	     -7.74647547	     -1.16945247	      2.08404279	     24.45170146	     -8.35270480	     12.89836096	     32.03261533	     91.78176345	      0.00000000	      0.00000000	     24.71335997	     -6.49457290	     24.47433207	    156.86294331	     43.35158950	      0.00000000	      0.00000000
      5.31000000	      4.97876967	      0.31158832	      2.21183816	     -0.05777679	      0.87089700	      2.62977528	    -15.52740403	      1.68734192	    -13.79146322	     -9.87568025	     11.15099297	      0.00000000	      0.00000000	     15.96559520	     -0.62458334	      2.24885824	    -12.75061940	     -7.02527616	      0.00000000	      0.00000000	     -7.72149131	     -1.30229594	      2.14635260	     24.00134743	     -8.39787562	     12.78205554	     32.18181778	     91.91379308	      0.00000000	      0.00000000	     24.57753458	     -6.51484243	     24.56373614	    156.87550960	     43.57516400	      0.00000000	      0.00000000
      5.32000000	      5.02560714	      0.51287007	      2.05829632	     -0.05659771	      0.87061483	      2.62787880	    -15.75868186	      1.17637852	    -13.47450733	    -10.79340554	     10.85018761	      0.00000000	      0.00000000	     15.70965103	     -0.31434955	      1.70390085	    -13.45368046	     -6.97075535	      0.00000000	      0.00000000	     -7.65689037	     -1.47881349	      2.25664878	     23.49600720	     -8.44103671	     12.61759957	     32.23293536	     92.08463543	      0.00000000	      0.00000000	     24.39708312	     -6.54849613	     24.64458379	    156.90680213	     43.79212952	      0.00000000	      0.00000000
      5.33000000	      5.02841533	      0.75018860	      1.83435665	     -0.05528423	      0.87061379	      2.62583542	    -15.84653647	      0.57935912	    -13.03853118	    -11.88087735	     10.41596926	      0.00000000	      0.00000000	     15.50030036	      0.02351046	      1.03790130	    -13.94127842	     -7.00856866	      0.00000000	      0.00000000	     -7.53788786	     -1.68986135	      2.41161125	     22.93753232	     -8.48184007	     12.41240999	     32.17135491	     92.29243323	      0.00000000	      0.00000000	     24.17553064	     -6.59383527	     24.71826098	    156.94928821	     43.98666608	      0.00000000	      0.00000000
      5.34000000	      4.97580349	      1.00915218	      1.54381556	     -0.05384130	      0.87083091	      2.62370367	    -15.74969288	     -0.08162983	    -12.49908683	    -13.17596789	      9.86918263	      0.00000000	      0.00000000	     15.28824737	      0.36703655	      0.36569667	    -14.30601363	     -7.02836200	      0.00000000	      0.00000000	     -7.35940908	     -1.91910190	      2.60692311	     22.33211613	     -8.51702057	     12.17404525	     31.99534275	     92.52348820	      0.00000000	      0.00000000	     23.93033733	     -6.64604767	     24.78308771	    156.99278833	     44.15329626	      0.00000000	      0.00000000
      5.35000000	      4.87052830	      1.26813824	      1.20367215	     -0.05237025	      0.87119671	      2.62160333	    -15.44106180	     -0.76760143	    -11.88076016	    -14.71050275	      9.22938781	      0.00000000	      0.00000000	     15.03212347	      0.69726275	     -0.22056688	    -14.64412551	     -6.92097265	      0.00000000	      0.00000000	     -7.13527439	     -2.14863366	      2.83392712	     21.69340496	     -8.54547898	     11.90777619	     31.71476624	     92.75375369	      0.00000000	      0.00000000	     23.68746253	     -6.69771280	     24.83137851	    157.02973981	     44.29539861	      0.00000000	      0.00000000
